<?xml version="1.0" encoding="iso-8859-1"?>
<!-- Generator: Adobe Illustrator 18.0.0, SVG Export Plug-In . SVG Version: 6.00 Build 0)  -->
<!DOCTYPE svg PUBLIC "-//W3C//DTD SVG 1.1//EN" "http://www.w3.org/Graphics/SVG/1.1/DTD/svg11.dtd">
<svg version="1.1" id="Capa_1" xmlns="http://www.w3.org/2000/svg" xmlns:xlink="http://www.w3.org/1999/xlink" x="0px" y="0px"
	 viewBox="0 0 297 297" style="enable-background:new 0 0 297 297;" xml:space="preserve">
<g>
	<path d="M63.333,297h172c16.568,0,30-13.432,30-30h-232C33.333,283.568,46.765,297,63.333,297z"/>
	<path d="M149.333,57.013c31.465,0,57.449-25.564,57.983-57.013H183.32c-0.269,17.994-14.93,32.5-32.987,32.5
		S117.614,17.994,117.346,0H91.35C91.884,31.448,117.868,57.013,149.333,57.013z"/>
	<path d="M282.333,0h-59.018c0,0.04,0.005,0.079,0.004,0.119c-0.291,19.534-8.115,37.853-22.03,51.58
		c-13.932,13.744-32.384,21.314-51.956,21.314s-38.024-7.569-51.956-21.314c-13.915-13.728-21.739-32.045-22.03-51.58
		C75.346,0.079,75.351,0.04,75.351,0H15.333C7.083,0,0,6.75,0,15v68c0,8.25,7.083,15,15.333,15H33v153h232V98h17.333
		C290.583,98,297,91.25,297,83V15C297,6.75,290.583,0,282.333,0z"/>
</g>
<g>
</g>
<g>
</g>
<g>
</g>
<g>
</g>
<g>
</g>
<g>
</g>
<g>
</g>
<g>
</g>
<g>
</g>
<g>
</g>
<g>
</g>
<g>
</g>
<g>
</g>
<g>
</g>
<g>
</g>
</svg>
